<?xml version="1.0" encoding="UTF-8" standalone="no"?>
<svg
   width="264px"
   height="280px"
   viewBox="0 0 264 280"
   version="1.1"
   id="svg209"
   sodipodi:docname="Avatar_robot.svg"
   inkscape:version="1.1.1 (3bf5ae0d25, 2021-09-20)"
   xmlns:inkscape="http://www.inkscape.org/namespaces/inkscape"
   xmlns:sodipodi="http://sodipodi.sourceforge.net/DTD/sodipodi-0.dtd"
   xmlns:xlink="http://www.w3.org/1999/xlink"
   xmlns="http://www.w3.org/2000/svg"
   xmlns:svg="http://www.w3.org/2000/svg">
  <sodipodi:namedview
     id="namedview211"
     pagecolor="#ffffff"
     bordercolor="#666666"
     borderopacity="1.0"
     inkscape:pageshadow="2"
     inkscape:pageopacity="0.0"
     inkscape:pagecheckerboard="0"
     showgrid="false"
     inkscape:zoom="2.9732825"
     inkscape:cx="128.30937"
     inkscape:cy="148.82541"
     inkscape:window-width="1920"
     inkscape:window-height="1001"
     inkscape:window-x="-9"
     inkscape:window-y="-9"
     inkscape:window-maximized="1"
     inkscape:current-layer="layer4" />
  <desc
     id="desc111">Created with getavataaars.com</desc>
  <defs
     id="defs116">
    <linearGradient
       id="linearGradient33935"
       inkscape:swatch="solid">
      <stop
         style="stop-color:#000000;stop-opacity:1;"
         offset="0"
         id="stop33933" />
    </linearGradient>
    <linearGradient
       id="linearGradient33929"
       inkscape:swatch="solid">
      <stop
         style="stop-color:#000000;stop-opacity:1;"
         offset="0"
         id="stop33927" />
    </linearGradient>
    <linearGradient
       id="linearGradient33361"
       inkscape:swatch="solid">
      <stop
         style="stop-color:#000000;stop-opacity:1;"
         offset="0"
         id="stop33359" />
    </linearGradient>
    <linearGradient
       id="linearGradient33355"
       inkscape:swatch="solid">
      <stop
         style="stop-color:#000000;stop-opacity:1;"
         offset="0"
         id="stop33353" />
    </linearGradient>
    <linearGradient
       id="linearGradient33349"
       inkscape:swatch="solid">
      <stop
         style="stop-color:#000000;stop-opacity:1;"
         offset="0"
         id="stop33347" />
    </linearGradient>
    <linearGradient
       id="linearGradient33343"
       inkscape:swatch="solid">
      <stop
         style="stop-color:#000000;stop-opacity:1;"
         offset="0"
         id="stop33341" />
    </linearGradient>
    <linearGradient
       id="linearGradient33337"
       inkscape:swatch="solid">
      <stop
         style="stop-color:#b2b2b2;stop-opacity:1;"
         offset="0"
         id="stop33335" />
    </linearGradient>
    <linearGradient
       id="linearGradient33331"
       inkscape:swatch="solid">
      <stop
         style="stop-color:#808080;stop-opacity:1;"
         offset="0"
         id="stop33329" />
    </linearGradient>
    <linearGradient
       id="linearGradient33268"
       inkscape:swatch="solid">
      <stop
         style="stop-color:#000000;stop-opacity:1;"
         offset="0"
         id="stop33266" />
    </linearGradient>
    <linearGradient
       id="linearGradient33208"
       inkscape:swatch="solid">
      <stop
         style="stop-color:#808080;stop-opacity:1;"
         offset="0"
         id="stop33206" />
    </linearGradient>
    <linearGradient
       id="linearGradient33182"
       inkscape:swatch="solid">
      <stop
         style="stop-color:#000000;stop-opacity:1;"
         offset="0"
         id="stop33180" />
    </linearGradient>
    <linearGradient
       id="linearGradient30494"
       inkscape:swatch="solid">
      <stop
         style="stop-color:#000000;stop-opacity:1;"
         offset="0"
         id="stop30492" />
    </linearGradient>
    <linearGradient
       id="linearGradient30449"
       inkscape:swatch="solid">
      <stop
         style="stop-color:#000000;stop-opacity:1;"
         offset="0"
         id="stop30447" />
    </linearGradient>
    <linearGradient
       id="linearGradient28025"
       inkscape:swatch="solid">
      <stop
         style="stop-color:#000000;stop-opacity:1;"
         offset="0"
         id="stop28023" />
    </linearGradient>
    <linearGradient
       id="linearGradient28019"
       inkscape:swatch="solid">
      <stop
         style="stop-color:#000000;stop-opacity:0.5;"
         offset="0"
         id="stop28017" />
    </linearGradient>
    <linearGradient
       id="linearGradient13278"
       inkscape:swatch="solid">
      <stop
         style="stop-color:#bfbfbf;stop-opacity:1;"
         offset="0"
         id="stop13276" />
    </linearGradient>
    <linearGradient
       id="linearGradient13272"
       inkscape:swatch="solid">
      <stop
         style="stop-color:#000000;stop-opacity:0.3019608;"
         offset="0"
         id="stop13270" />
    </linearGradient>
    <linearGradient
       id="linearGradient13266"
       inkscape:swatch="solid">
      <stop
         style="stop-color:#000000;stop-opacity:1;"
         offset="0"
         id="stop13264" />
    </linearGradient>
    <linearGradient
       id="linearGradient13260"
       inkscape:swatch="solid">
      <stop
         style="stop-color:#4d4d4d;stop-opacity:1;"
         offset="0"
         id="stop13258" />
    </linearGradient>
    <linearGradient
       id="linearGradient13254"
       inkscape:swatch="solid">
      <stop
         style="stop-color:#000000;stop-opacity:1;"
         offset="0"
         id="stop13252" />
    </linearGradient>
    <circle
       id="react-path-1"
       cx="120"
       cy="120"
       r="120" />
    <path
       d="M12,160 C12,226.27417 65.72583,280 132,280 C198.27417,280 252,226.27417 252,160 L264,160 L264,-1.42108547e-14 L-3.19744231e-14,-1.42108547e-14 L-3.19744231e-14,160 L12,160 Z"
       id="react-path-2" />
    <path
       d="M124,144.610951 L124,163 L128,163 L128,163 C167.764502,163 200,195.235498 200,235 L200,244 L0,244 L0,235 C-4.86974701e-15,195.235498 32.235498,163 72,163 L72,163 L76,163 L76,144.610951 C58.7626345,136.422372 46.3722246,119.687011 44.3051388,99.8812385 C38.4803105,99.0577866 34,94.0521096 34,88 L34,74 C34,68.0540074 38.3245733,63.1180731 44,62.1659169 L44,56 L44,56 C44,25.072054 69.072054,5.68137151e-15 100,0 L100,0 L100,0 C130.927946,-5.68137151e-15 156,25.072054 156,56 L156,62.1659169 C161.675427,63.1180731 166,68.0540074 166,74 L166,88 C166,94.0521096 161.51969,99.0577866 155.694861,99.8812385 C153.627775,119.687011 141.237365,136.422372 124,144.610951 Z"
       id="react-path-3" />
    <filter
       style="color-interpolation-filters:sRGB;"
       inkscape:label="Greyscale"
       id="filter492"
       x="0.037267081"
       y="0"
       width="0.74534161"
       height="0.87919463">
      <feColorMatrix
         values="0.21 0.72 0.072 0 0 0.21 0.72 0.072 0 0 0.21 0.72 0.072 0 0 0 0 0 1 0 "
         id="feColorMatrix490" />
    </filter>
    <linearGradient
       inkscape:collect="always"
       xlink:href="#linearGradient13254"
       id="linearGradient13256"
       x1="91.145057"
       y1="136.26505"
       x2="117.9217"
       y2="136.26505"
       gradientUnits="userSpaceOnUse"
       gradientTransform="matrix(1.2544225,0,0,1.2844633,-18.06665,-52.574816)" />
    <linearGradient
       inkscape:collect="always"
       xlink:href="#linearGradient13266"
       id="linearGradient13268"
       x1="90.808731"
       y1="181.78561"
       x2="174.89088"
       y2="181.78561"
       gradientUnits="userSpaceOnUse"
       gradientTransform="matrix(1.1790049,0,0,0.99605102,-24.621582,10.13507)" />
    <linearGradient
       inkscape:collect="always"
       xlink:href="#linearGradient33208"
       id="linearGradient13280"
       x1="88.826698"
       y1="75.001282"
       x2="171.89986"
       y2="75.001282"
       gradientUnits="userSpaceOnUse"
       gradientTransform="matrix(1,0,0,1.1510216,1.0089859,-16.671022)" />
    <linearGradient
       inkscape:collect="always"
       xlink:href="#linearGradient33208"
       id="linearGradient33270"
       x1="59.931015"
       y1="151.71642"
       x2="205.98262"
       y2="151.71642"
       gradientUnits="userSpaceOnUse"
       gradientTransform="matrix(1.2014505,0,0,1.2371846,-27.128964,-28.921916)" />
    <linearGradient
       inkscape:collect="always"
       xlink:href="#linearGradient33208"
       id="linearGradient33339"
       x1="101.94351"
       y1="262.67264"
       x2="167.19125"
       y2="262.67264"
       gradientUnits="userSpaceOnUse"
       gradientTransform="matrix(1.1366976,0,0,1.2192458,-19.198977,-67.793726)" />
    <linearGradient
       inkscape:collect="always"
       xlink:href="#linearGradient33208"
       id="linearGradient33345"
       x1="189.43774"
       y1="73.151474"
       x2="195.14507"
       y2="73.151474"
       gradientUnits="userSpaceOnUse"
       gradientTransform="translate(6)" />
    <linearGradient
       inkscape:collect="always"
       xlink:href="#linearGradient33208"
       id="linearGradient33351"
       x1="70.292686"
       y1="75.26059"
       x2="76"
       y2="75.26059"
       gradientUnits="userSpaceOnUse"
       gradientTransform="translate(-6,-2)" />
    <linearGradient
       inkscape:collect="always"
       xlink:href="#linearGradient33208"
       id="linearGradient33357"
       x1="181.70218"
       y1="47.163029"
       x2="203.2272"
       y2="47.163029"
       gradientUnits="userSpaceOnUse"
       gradientTransform="translate(6,4)" />
    <linearGradient
       inkscape:collect="always"
       xlink:href="#linearGradient33208"
       id="linearGradient33363"
       x1="62.557125"
       y1="49.272144"
       x2="84.082153"
       y2="49.272144"
       gradientUnits="userSpaceOnUse"
       gradientTransform="translate(-6)" />
    <linearGradient
       inkscape:collect="always"
       xlink:href="#linearGradient13254"
       id="linearGradient33715"
       gradientUnits="userSpaceOnUse"
       gradientTransform="matrix(1.2544225,0,0,1.2844633,50.223988,-61.715464)"
       x1="91.145057"
       y1="136.26505"
       x2="117.9217"
       y2="136.26505" />
    <linearGradient
       inkscape:collect="always"
       xlink:href="#linearGradient13260"
       id="linearGradient33931"
       x1="218.30026"
       y1="123.33151"
       x2="235.94618"
       y2="123.33151"
       gradientUnits="userSpaceOnUse" />
    <linearGradient
       inkscape:collect="always"
       xlink:href="#linearGradient13260"
       id="linearGradient33937"
       x1="218.30026"
       y1="123.33151"
       x2="235.94618"
       y2="123.33151"
       gradientUnits="userSpaceOnUse" />
  </defs>
  <g
     inkscape:groupmode="layer"
     id="layer4"
     inkscape:label="Circle"
     style="display:inline">
    <circle
       style="fill:#fc4040;fill-opacity:1;stroke:none;stroke-width:1.06767"
       id="path34007"
       cx="133.52248"
       cy="158.09244"
       r="119.39666" />
    <path
       style="fill:#fc4040;fill-opacity:1;stroke-width:0.336329"
       d="m 40.527318,232.57933 c -4.133854,-5.20663 -6.246597,-8.24896 -9.464922,-13.6294 -9.979322,-16.68356 -15.787747,-36.04451 -16.547764,-55.15789 -1.009365,-25.38412 4.951657,-48.0966 18.190036,-69.307059 2.226211,-3.566822 7.218326,-10.374524 9.806595,-13.373164 l 1.547786,-1.793188 -0.01486,21.804741 -0.01487,21.80474 -0.674292,-1.27773 c -1.006568,-1.90737 -3.163331,-3.89426 -5.30013,-4.88269 -1.509605,-0.6983 -2.42071,-0.88022 -4.438097,-0.88616 -4.649333,-0.0137 -8.24352,2.44751 -10.536001,7.21474 -0.989805,2.05831 -1.051275,2.4123 -1.051275,6.05392 0,3.65197 0.05992,3.99428 1.073942,6.13489 2.624467,5.54029 8.463995,8.70817 14.171911,7.68811 2.863919,-0.51181 3.233019,-0.73954 2.96023,-1.82642 l -0.214868,-0.8561 -1.543449,0.52591 c -2.102024,0.71623 -5.911086,0.46283 -7.96123,-0.52963 -2.464218,-1.19291 -4.477647,-3.20018 -5.699466,-5.68205 -1.015054,-2.06187 -1.105427,-2.50723 -1.105427,-5.44764 0,-2.74661 0.124464,-3.46755 0.874828,-5.06735 1.810377,-3.85976 4.593962,-6.00156 8.17332,-6.28888 3.947226,-0.31684 7.363408,1.56843 9.206408,5.08072 0.776387,1.47959 0.907416,2.13898 0.911457,4.5868 0.0042,2.54865 -0.104743,3.05817 -1.004268,4.69664 -1.889078,3.44092 -5.145087,4.9917 -8.561834,4.07786 -2.175942,-0.58198 -3.666715,-1.86301 -4.638679,-3.98606 -1.972554,-4.30863 0.291645,-9.28088 4.439075,-9.74836 3.822648,-0.43087 6.629103,3.4469 5.115823,7.06869 -0.935233,2.23833 -3.643632,2.87797 -5.275648,1.24596 -1.134375,-1.13438 -0.668073,-3.69106 0.673196,-3.69106 0.932731,0 1.18175,0.64295 0.462106,1.19313 -0.541036,0.41363 -0.556406,0.51979 -0.117761,0.8133 0.795183,0.53208 1.288736,0.41055 1.8574,-0.45734 1.24733,-1.90367 -0.974911,-4.15352 -3.19446,-3.23416 -1.328837,0.55043 -2.026227,1.89069 -2.026227,3.89407 0,1.37501 0.16199,1.73174 1.305747,2.8755 1.206702,1.2067 1.448987,1.30574 3.194153,1.30574 1.69243,0 2.026175,-0.12446 3.215929,-1.19934 1.621717,-1.46512 2.157596,-2.96943 1.971971,-5.53568 -0.265888,-3.67586 -3.024528,-6.21524 -6.70746,-6.17435 -7.018441,0.0779 -9.997034,9.87688 -4.632839,15.24107 4.232618,4.23262 11.500561,2.92638 14.413434,-2.59047 0.66168,-1.25319 0.662499,-1.19133 0.677346,51.12848 0.0082,28.81075 -0.0302,52.38318 -0.08527,52.38318 -0.05507,0 -1.599293,-1.88821 -3.4316,-4.19602 z"
       id="path1133" />
    <path
       style="fill:#fc4040;fill-opacity:1;stroke-width:0.336329"
       d="m 126.79589,277.1174 c -24.52233,-1.35725 -48.501665,-10.54101 -67.602053,-25.89065 -4.59682,-3.69414 -10.555739,-9.16893 -12.475751,-11.46218 l -1.376359,-1.64391 h 25.255965 25.255965 v 16.14378 16.14377 h 37.836973 37.83697 v -16.14377 -16.14378 h 24.72015 24.72015 v -52.46504 -52.46504 l 1.49867,1.14395 c 1.99119,1.51991 3.52325,1.98145 6.01791,1.81293 2.38994,-0.16145 4.2474,-0.95825 5.76005,-2.4709 3.27697,-3.27698 3.54528,-9.16084 0.57593,-12.62986 -2.33731,-2.73063 -5.39167,-3.34922 -8.50542,-1.72257 -3.2929,1.72023 -4.59565,5.82433 -2.90875,9.16351 1.10194,2.18127 2.65356,3.11349 4.8842,2.93444 2.0966,-0.16829 3.57099,-1.34055 4.16041,-3.30787 0.97849,-3.26591 -2.58256,-6.51914 -4.75642,-4.34528 -1.21339,1.21339 -0.47647,4.08348 0.91169,3.55079 0.26875,-0.10312 0.55193,-0.1875 0.62929,-0.1875 0.0774,0 0.14066,-0.22702 0.14066,-0.50449 0,-0.27748 -0.15135,-0.5045 -0.33633,-0.5045 -0.18498,0 -0.33633,-0.23755 -0.33633,-0.52788 0,-0.81581 1.42899,-0.44916 1.89334,0.48579 0.55616,1.1198 -0.0333,2.62321 -1.28169,3.26877 -3.02915,1.56643 -5.92477,-2.26586 -4.43257,-5.86639 0.92806,-2.23932 2.43634,-3.1754 4.84519,-3.00707 2.07367,0.1449 3.16266,0.78637 4.40576,2.59518 0.67447,0.98142 0.79205,1.56378 0.79205,3.92289 0,2.54338 -0.0838,2.88965 -1.02297,4.2259 -2.55822,3.6399 -7.22801,4.25268 -10.57511,1.3877 -2.15006,-1.84038 -2.35956,-2.49976 -2.35956,-7.42671 0,-4.25737 0.0183,-4.36379 0.97908,-5.69009 1.83966,-2.53957 4.46594,-3.87555 7.62192,-3.87725 3.75834,-0.002 7.04465,2.26132 8.83833,6.08713 0.78607,1.67665 0.89058,2.31398 0.89058,5.43102 0,3.37827 -0.0496,3.62289 -1.14321,5.63967 -0.62877,1.15952 -1.74572,2.65255 -2.4821,3.31783 -2.91409,2.6327 -7.39966,3.74487 -10.82112,2.68303 -0.91627,-0.28436 -1.70759,-0.47538 -1.75848,-0.4245 -0.0509,0.0509 -0.13362,0.4423 -0.18386,0.86981 -0.14143,1.20364 1.86106,1.7824 5.64509,1.63152 3.70276,-0.14763 6.15721,-1.19513 8.65646,-3.69439 6.53037,-6.53036 4.88567,-18.46512 -3.08398,-22.37896 -1.61899,-0.79507 -2.30382,-0.92831 -4.75049,-0.92427 -2.44383,0.004 -3.10814,0.13558 -4.57657,0.90627 -0.94478,0.49585 -2.1934,1.30176 -2.77471,1.7909 l -1.05694,0.88935 V 98.406018 79.373554 h -9.58536 -9.58537 v -9.044889 c 0,-7.340487 0.0867,-9.07815 0.45997,-9.221395 1.13738,-0.436456 13.52317,10.237932 19.17165,16.522624 17.94003,19.960685 28.20078,43.049226 30.81784,69.345716 0.45478,4.56964 0.45239,17.66365 -0.004,22.19769 -3.69728,36.7271 -23.27521,69.04118 -53.85491,88.8895 -17.84947,11.58554 -37.25856,17.86316 -58.97944,19.07617 -6.19666,0.34605 -5.96313,0.34645 -12.61232,-0.0216 z"
       id="path1172" />
    <path
       style="fill:#fc4040;fill-opacity:1;stroke-width:0.336329"
       d="m 128.81386,277.25653 c -25.50249,-1.0993 -49.981014,-10.25935 -69.672074,-26.07184 -4.678418,-3.7569 -10.431667,-9.04085 -12.388068,-11.37756 l -1.411991,-1.68647 h 25.255965 25.255965 v 16.14378 16.14377 h 37.836973 37.83697 v -16.14377 -16.14378 h 24.72015 24.72015 v -52.46504 -52.46504 l 1.49867,1.14395 c 1.99119,1.51991 3.52325,1.98145 6.01791,1.81293 2.38994,-0.16145 4.2474,-0.95825 5.76005,-2.4709 3.27697,-3.27698 3.54528,-9.16084 0.57593,-12.62986 -2.33731,-2.73063 -5.39167,-3.34922 -8.50542,-1.72257 -3.2929,1.72023 -4.59565,5.82433 -2.90875,9.16351 1.10194,2.18127 2.65356,3.11349 4.8842,2.93444 2.0966,-0.16829 3.57099,-1.34055 4.16041,-3.30787 0.97849,-3.26591 -2.58256,-6.51914 -4.75642,-4.34528 -1.21339,1.21339 -0.47647,4.08348 0.91169,3.55079 0.26875,-0.10312 0.55193,-0.1875 0.62929,-0.1875 0.0774,0 0.14066,-0.22702 0.14066,-0.50449 0,-0.27748 -0.15135,-0.5045 -0.33633,-0.5045 -0.18498,0 -0.33633,-0.23755 -0.33633,-0.52788 0,-0.81581 1.42899,-0.44916 1.89334,0.48579 0.55616,1.1198 -0.0333,2.62321 -1.28169,3.26877 -3.02915,1.56643 -5.92477,-2.26586 -4.43257,-5.86639 0.92806,-2.23932 2.43634,-3.1754 4.84519,-3.00707 2.07367,0.1449 3.16266,0.78637 4.40576,2.59518 0.67447,0.98142 0.79205,1.56378 0.79205,3.92289 0,2.54338 -0.0838,2.88965 -1.02297,4.2259 -2.55822,3.6399 -7.22801,4.25268 -10.57511,1.3877 -2.15006,-1.84038 -2.35956,-2.49976 -2.35956,-7.42671 0,-4.25737 0.0183,-4.36379 0.97908,-5.69009 1.83966,-2.53957 4.46594,-3.87555 7.62192,-3.87725 3.75834,-0.002 7.04465,2.26132 8.83833,6.08713 0.78607,1.67665 0.89058,2.31398 0.89058,5.43102 0,3.37827 -0.0496,3.62289 -1.14321,5.63967 -0.62877,1.15952 -1.74572,2.65255 -2.4821,3.31783 -2.91409,2.6327 -7.39966,3.74487 -10.82112,2.68303 -0.91627,-0.28436 -1.70759,-0.47538 -1.75848,-0.4245 -0.0509,0.0509 -0.13362,0.4423 -0.18386,0.86981 -0.14143,1.20364 1.86106,1.7824 5.64509,1.63152 3.70276,-0.14763 6.15721,-1.19513 8.65646,-3.69439 6.53037,-6.53036 4.88567,-18.46512 -3.08398,-22.37896 -1.61899,-0.79507 -2.30382,-0.92831 -4.75049,-0.92427 -2.44383,0.004 -3.10814,0.13558 -4.57657,0.90627 -0.94478,0.49585 -2.1934,1.30176 -2.77471,1.7909 l -1.05694,0.88935 V 98.406018 79.373554 h -9.58536 -9.58537 v -9.044889 c 0,-7.340487 0.0867,-9.07815 0.45997,-9.221395 0.25459,-0.09769 2.05014,1.058197 4.02131,2.58873 20.155,15.649503 34.73635,37.00414 41.7114,61.08705 3.65513,12.62015 5.08574,24.87556 4.54381,38.92491 -1.12684,29.21281 -13.63179,57.50431 -34.75258,78.62511 -19.43838,19.43838 -44.55091,31.46323 -71.55927,34.26536 -5.10429,0.52957 -13.24778,0.83743 -17.40795,0.6581 z"
       id="path1211" />
    <path
       style="fill:#fc4040;fill-opacity:1;stroke-width:0.336329"
       d="m 128.81386,277.25791 c -26.43573,-1.15394 -51.42092,-10.79257 -71.637995,-27.63606 -3.410874,-2.84171 -9.579336,-8.66199 -10.759843,-10.1525 l -1.068181,-1.34869 h 25.252908 25.252908 v 16.14378 16.14377 h 37.836973 37.83697 v -16.14377 -16.14378 h 24.72015 24.72015 v -52.46504 -52.46504 l 1.49867,1.14395 c 1.99119,1.51991 3.52325,1.98145 6.01791,1.81293 2.38994,-0.16145 4.2474,-0.95825 5.76005,-2.4709 3.27697,-3.27698 3.54528,-9.16084 0.57593,-12.62986 -2.33731,-2.73063 -5.39167,-3.34922 -8.50542,-1.72257 -3.2929,1.72023 -4.59565,5.82433 -2.90875,9.16351 1.10194,2.18127 2.65356,3.11349 4.8842,2.93444 2.0966,-0.16829 3.57099,-1.34055 4.16041,-3.30787 0.97849,-3.26591 -2.58256,-6.51914 -4.75642,-4.34528 -1.21339,1.21339 -0.47647,4.08348 0.91169,3.55079 0.26875,-0.10312 0.55193,-0.1875 0.62929,-0.1875 0.0774,0 0.14066,-0.22702 0.14066,-0.50449 0,-0.27748 -0.15135,-0.5045 -0.33633,-0.5045 -0.18498,0 -0.33633,-0.23755 -0.33633,-0.52788 0,-0.81581 1.42899,-0.44916 1.89334,0.48579 0.55616,1.1198 -0.0333,2.62321 -1.28169,3.26877 -3.02915,1.56643 -5.92477,-2.26586 -4.43257,-5.86639 0.92806,-2.23932 2.43634,-3.1754 4.84519,-3.00707 2.07367,0.1449 3.16266,0.78637 4.40576,2.59518 0.67447,0.98142 0.79205,1.56378 0.79205,3.92289 0,2.54338 -0.0838,2.88965 -1.02297,4.2259 -2.55822,3.6399 -7.22801,4.25268 -10.57511,1.3877 -2.15006,-1.84038 -2.35956,-2.49976 -2.35956,-7.42671 0,-4.25737 0.0183,-4.36379 0.97908,-5.69009 1.83966,-2.53957 4.46594,-3.87555 7.62192,-3.87725 3.75834,-0.002 7.04465,2.26132 8.83833,6.08713 0.78607,1.67665 0.89058,2.31398 0.89058,5.43102 0,3.37827 -0.0496,3.62289 -1.14321,5.63967 -0.62877,1.15952 -1.74572,2.65255 -2.4821,3.31783 -2.91409,2.6327 -7.39966,3.74487 -10.82112,2.68303 -0.91627,-0.28436 -1.70759,-0.47538 -1.75848,-0.4245 -0.0509,0.0509 -0.13362,0.4423 -0.18386,0.86981 -0.14143,1.20364 1.86106,1.7824 5.64509,1.63152 3.70276,-0.14763 6.15721,-1.19513 8.65646,-3.69439 6.53037,-6.53036 4.88567,-18.46512 -3.08398,-22.37896 -1.61899,-0.79507 -2.30382,-0.92831 -4.75049,-0.92427 -2.44383,0.004 -3.10814,0.13558 -4.57657,0.90627 -0.94478,0.49585 -2.1934,1.30176 -2.77471,1.7909 l -1.05694,0.88935 V 98.406018 79.373554 h -9.58536 -9.58537 v -9.044889 c 0,-7.340487 0.0867,-9.07815 0.45997,-9.221395 0.25459,-0.09769 2.05014,1.058197 4.02131,2.58873 27.93824,21.692858 44.89442,54.22777 46.25109,88.74495 1.03046,26.21756 -5.31,49.51143 -19.29347,70.88125 -19.88872,30.39435 -52.53902,50.12326 -88.4466,53.44376 -4.33611,0.40098 -12.383,0.64877 -15.97561,0.49195 z"
       id="path1250" />
    <path
       style="fill:#fc4040;fill-opacity:1;stroke-width:0.336329"
       d="m 128.6457,277.24696 c -29.565397,-1.4207 -55.940538,-12.66732 -77.568122,-33.0758 -2.364939,-2.23163 -4.619193,-4.50593 -5.009454,-5.05401 l -0.709564,-0.99649 h 25.247548 25.247549 v 16.14378 16.14377 h 37.836973 37.83697 v -16.14377 -16.14378 h 24.72015 24.72015 v -52.46504 -52.46504 l 1.49867,1.14395 c 1.99119,1.51991 3.52325,1.98145 6.01791,1.81293 2.38994,-0.16145 4.2474,-0.95825 5.76005,-2.4709 3.27697,-3.27698 3.54528,-9.16084 0.57593,-12.62986 -2.33731,-2.73063 -5.39167,-3.34922 -8.50542,-1.72257 -3.2929,1.72023 -4.59565,5.82433 -2.90875,9.16351 1.10194,2.18127 2.65356,3.11349 4.8842,2.93444 2.0966,-0.16829 3.57099,-1.34055 4.16041,-3.30787 0.97849,-3.26591 -2.58256,-6.51914 -4.75642,-4.34528 -1.21339,1.21339 -0.47647,4.08348 0.91169,3.55079 0.26875,-0.10312 0.55193,-0.1875 0.62929,-0.1875 0.0774,0 0.14066,-0.22702 0.14066,-0.50449 0,-0.27748 -0.15135,-0.5045 -0.33633,-0.5045 -0.18498,0 -0.33633,-0.23755 -0.33633,-0.52788 0,-0.81581 1.42899,-0.44916 1.89334,0.48579 0.55616,1.1198 -0.0333,2.62321 -1.28169,3.26877 -3.02915,1.56643 -5.92477,-2.26586 -4.43257,-5.86639 0.92806,-2.23932 2.43634,-3.1754 4.84519,-3.00707 2.07367,0.1449 3.16266,0.78637 4.40576,2.59518 0.67447,0.98142 0.79205,1.56378 0.79205,3.92289 0,2.54338 -0.0838,2.88965 -1.02297,4.2259 -2.55822,3.6399 -7.22801,4.25268 -10.57511,1.3877 -2.15006,-1.84038 -2.35956,-2.49976 -2.35956,-7.42671 0,-4.25737 0.0183,-4.36379 0.97908,-5.69009 1.83966,-2.53957 4.46594,-3.87555 7.62192,-3.87725 3.75834,-0.002 7.04465,2.26132 8.83833,6.08713 0.78607,1.67665 0.89058,2.31398 0.89058,5.43102 0,3.37827 -0.0496,3.62289 -1.14321,5.63967 -0.62877,1.15952 -1.74572,2.65255 -2.4821,3.31783 -2.91409,2.6327 -7.39966,3.74487 -10.82112,2.68303 -0.91627,-0.28436 -1.70759,-0.47538 -1.75848,-0.4245 -0.0509,0.0509 -0.13362,0.4423 -0.18386,0.86981 -0.14143,1.20364 1.86106,1.7824 5.64509,1.63152 3.70276,-0.14763 6.15721,-1.19513 8.65646,-3.69439 6.53037,-6.53036 4.88567,-18.46512 -3.08398,-22.37896 -1.61899,-0.79507 -2.30382,-0.92831 -4.75049,-0.92427 -2.44383,0.004 -3.10814,0.13558 -4.57657,0.90627 -0.94478,0.49585 -2.1934,1.30176 -2.77471,1.7909 l -1.05694,0.88935 V 98.406018 79.373554 h -9.58536 -9.58537 v -9.044889 c 0,-7.123488 0.0931,-9.080626 0.43839,-9.213115 0.94229,-0.361591 9.50443,6.671873 15.87734,13.042613 20.77784,20.770778 33.33314,49.353777 34.42323,78.366867 0.52376,13.93983 -0.81388,25.70623 -4.34124,38.18735 -10.19205,36.06327 -37.59794,65.83138 -72.72753,78.9962 -11.49096,4.30623 -22.90695,6.68682 -35.55465,7.41425 -5.65937,0.3255 -6.8121,0.33819 -11.26701,0.12413 z"
       id="path1289" />
    <path
       style="fill:#fc4040;fill-opacity:1;stroke-width:0.336329"
       d="m 70.62901,69.461713 v -9.911841 l 1.821068,-0.861504 c 2.172605,-1.027806 4.306627,-3.068925 5.140909,-4.917101 0.547129,-1.212047 0.96161,-1.513263 4.305032,-3.128593 C 94.517891,44.544583 108.75877,40.6299 123.02874,39.33568 c 5.80631,-0.526605 20.67849,-0.238944 25.96484,0.50222 12.11209,1.698154 23.19685,4.891908 34.10778,9.827176 l 3.67004,1.660045 0.56861,2.077231 c 0.94386,3.448063 3.11832,5.984324 6.30119,7.349614 l 1.09307,0.46887 v 9.076359 9.076359 H 184.13992 173.54557 V 66.593067 53.812579 H 131.33633 89.127084 V 66.593067 79.373554 H 79.878047 70.62901 Z"
       id="path1328" />
    <path
       style="fill:#fc4040;fill-opacity:1;stroke-width:0.336329"
       d="m 70.62901,69.461713 v -9.911841 l 1.821068,-0.861504 c 2.172767,-1.027883 4.306706,-3.069015 5.140909,-4.917325 0.542673,-1.202378 0.965721,-1.515646 4.081965,-3.0227 12.957361,-6.26634 26.923328,-10.111645 41.524148,-11.433006 6.49673,-0.587948 21.02585,-0.212199 26.97363,0.697588 12.10051,1.850923 21.93836,4.720912 32.70216,9.540172 l 3.89023,1.741764 0.57275,2.092361 c 0.94806,3.46341 3.11746,5.997307 6.30533,7.364744 l 1.09307,0.46887 v 9.076359 9.076359 H 184.13992 173.54557 V 66.593067 53.812579 H 131.33633 89.127084 V 66.593067 79.373554 H 79.878047 70.62901 Z"
       id="path1367" />
    <path
       style="fill:#fc4040;fill-opacity:1;stroke-width:0.336329"
       d="m 70.62901,69.461713 v -9.911841 l 1.821068,-0.861504 c 2.174787,-1.028839 4.307687,-3.070136 5.140909,-4.92012 0.54747,-1.215535 0.959522,-1.515655 4.305032,-3.135593 11.077943,-5.364078 22.495271,-8.770098 36.323491,-10.836033 5.83642,-0.871962 24.76948,-0.871962 30.6059,0 13.03767,1.947826 23.24119,4.872384 34.10471,9.775174 l 3.83512,1.730822 0.57169,2.088482 c 0.94698,3.459476 3.11768,5.993979 6.30427,7.360866 l 1.09307,0.46887 v 9.076359 9.076359 H 184.13992 173.54557 V 66.593067 53.812579 H 131.33633 89.127084 V 66.593067 79.373554 H 79.878047 70.62901 Z"
       id="path1406" />
    <path
       style="fill:#fc4040;fill-opacity:1;stroke-width:0.336329"
       d="m 128.30937,277.27156 c -10.42965,-0.76986 -17.15445,-1.80069 -24.87606,-3.81318 -16.208201,-4.22436 -31.29996,-11.83425 -44.582929,-22.48056 -4.4366,-3.55594 -11.609547,-10.21375 -12.78984,-11.87131 l -0.701981,-0.98585 h 25.247548 25.247549 v 16.14378 16.14377 h 37.836973 37.83697 v -16.14377 -16.14378 h 24.72015 24.72015 v -52.46504 -52.46504 l 1.49867,1.14395 c 1.99119,1.51991 3.52325,1.98145 6.01791,1.81293 2.38994,-0.16145 4.2474,-0.95825 5.76005,-2.4709 3.27697,-3.27698 3.54528,-9.16084 0.57593,-12.62986 -2.33731,-2.73063 -5.39167,-3.34922 -8.50542,-1.72257 -3.2929,1.72023 -4.59565,5.82433 -2.90875,9.16351 1.10194,2.18127 2.65356,3.11349 4.8842,2.93444 2.0966,-0.16829 3.57099,-1.34055 4.16041,-3.30787 0.97849,-3.26591 -2.58256,-6.51914 -4.75642,-4.34528 -1.21339,1.21339 -0.47647,4.08348 0.91169,3.55079 0.26875,-0.10312 0.55193,-0.1875 0.62929,-0.1875 0.0774,0 0.14066,-0.22702 0.14066,-0.50449 0,-0.27748 -0.15135,-0.5045 -0.33633,-0.5045 -0.18498,0 -0.33633,-0.23755 -0.33633,-0.52788 0,-0.81581 1.42899,-0.44916 1.89334,0.48579 0.55616,1.1198 -0.0333,2.62321 -1.28169,3.26877 -3.02915,1.56643 -5.92477,-2.26586 -4.43257,-5.86639 0.92806,-2.23932 2.43634,-3.1754 4.84519,-3.00707 2.07367,0.1449 3.16266,0.78637 4.40576,2.59518 0.67447,0.98142 0.79205,1.56378 0.79205,3.92289 0,2.54338 -0.0838,2.88965 -1.02297,4.2259 -2.55822,3.6399 -7.22801,4.25268 -10.57511,1.3877 -2.15006,-1.84038 -2.35956,-2.49976 -2.35956,-7.42671 0,-4.25737 0.0183,-4.36379 0.97908,-5.69009 1.83966,-2.53957 4.46594,-3.87555 7.62192,-3.87725 3.75834,-0.002 7.04465,2.26132 8.83833,6.08713 0.78607,1.67665 0.89058,2.31398 0.89058,5.43102 0,3.37827 -0.0496,3.62289 -1.14321,5.63967 -0.62877,1.15952 -1.74572,2.65255 -2.4821,3.31783 -2.91409,2.6327 -7.39966,3.74487 -10.82112,2.68303 -0.91627,-0.28436 -1.70759,-0.47538 -1.75848,-0.4245 -0.0509,0.0509 -0.13362,0.4423 -0.18386,0.86981 -0.14143,1.20364 1.86106,1.7824 5.64509,1.63152 3.70276,-0.14763 6.15721,-1.19513 8.65646,-3.69439 6.53037,-6.53036 4.88567,-18.46512 -3.08398,-22.37896 -1.61899,-0.79507 -2.30382,-0.92831 -4.75049,-0.92427 -2.44383,0.004 -3.10814,0.13558 -4.57657,0.90627 -0.94478,0.49585 -2.1934,1.30176 -2.77471,1.7909 l -1.05694,0.88935 V 98.406018 79.373554 h -9.58536 -9.58537 v -9.044889 c 0,-7.334839 0.0868,-9.078217 0.45938,-9.221169 0.90995,-0.349182 9.39078,6.596678 15.52688,12.716636 17.44368,17.397789 29.12503,39.859458 33.27546,63.984288 2.07993,12.08985 2.08244,28.32126 0.006,40.53206 -5.36833,31.5731 -24.08698,60.50248 -50.78144,78.48192 -16.82332,11.33096 -35.47557,18.07351 -55.1579,19.93889 -4.15218,0.39351 -14.24797,0.69986 -16.81643,0.51027 z"
       id="path1445" />
  </g>
  <g
     inkscape:groupmode="layer"
     id="layer2"
     inkscape:label="Robot_body"
     style="display:inline">
    <rect
       style="fill:#a7a7a7;stroke:url(#linearGradient33270);stroke-width:1.14266"
       id="rect3470"
       width="175.47377"
       height="157.078"
       x="44.875187"
       y="80.240311" />
    <rect
       style="fill:#a7a7a7;stroke:url(#linearGradient33351)"
       id="rect3576"
       width="5.7073164"
       height="33.478821"
       x="64.292686"
       y="56.521179" />
    <ellipse
       style="fill:#a7a7a7;stroke:url(#linearGradient33363)"
       id="path3600"
       cx="67.319641"
       cy="49.272144"
       rx="10.762516"
       ry="9.9216948" />
    <rect
       style="fill:#a7a7a7;stroke:url(#linearGradient33345)"
       id="rect3576-3"
       width="5.7073164"
       height="33.478821"
       x="195.43774"
       y="56.412064" />
    <ellipse
       style="fill:#a7a7a7;stroke:url(#linearGradient33357)"
       id="path3600-5"
       cx="198.46469"
       cy="51.163029"
       rx="10.762516"
       ry="9.9216948" />
    <rect
       style="fill:#a7a7a7;fill-opacity:1;stroke:url(#linearGradient33339);stroke-width:1.16346"
       id="rect33098"
       width="74.166962"
       height="34.445644"
       x="96.679962"
       y="235.24594" />
  </g>
  <g
     inkscape:groupmode="layer"
     id="layer3"
     inkscape:label="Robot_face"
     style="display:inline">
    <ellipse
       style="fill:#e6e6e6;stroke:url(#linearGradient13256);stroke-width:1.26935"
       id="path3731"
       cx="113.06236"
       cy="122.45264"
       rx="16.794611"
       ry="16.050806"
       transform="matrix(0.9918801,0.12717655,-0.12120603,0.99262737,0,0)" />
    <ellipse
       style="display:inline;fill:#e6e6e6;stroke:url(#linearGradient33715);stroke-width:1.26935"
       id="path3731-4"
       cx="181.35301"
       cy="113.312"
       rx="16.794611"
       ry="16.050806"
       transform="matrix(0.9918801,0.12717655,-0.12120603,0.99262737,0,0)" />
    <rect
       style="fill:#e6e6e6;stroke:url(#linearGradient13268);stroke-width:1.08367"
       id="rect3879"
       width="99.13327"
       height="21.10503"
       x="82.442352"
       y="180.65031" />
    <rect
       style="fill:#a7a7a7;fill-opacity:1;stroke:url(#linearGradient13280);stroke-width:1.07286"
       id="rect3903"
       width="83.073166"
       height="30.195478"
       x="89.835686"
       y="54.559338" />
    <path
       sodipodi:type="spiral"
       style="fill:none;fill-rule:evenodd;stroke:url(#linearGradient33931)"
       id="path33743"
       sodipodi:cx="226.34917"
       sodipodi:cy="124.10527"
       sodipodi:expansion="1"
       sodipodi:revolution="3"
       sodipodi:radius="9.3266783"
       sodipodi:argument="-18.402037"
       sodipodi:t0="0"
       d="m 226.34917,124.10527 c 0.42157,0.20236 -0.0648,0.66811 -0.33633,0.70069 -0.73588,0.0883 -1.15282,-0.74753 -1.06504,-1.37335 0.15701,-1.11944 1.39007,-1.67736 2.41035,-1.42939 1.4973,0.36389 2.2133,2.03984 1.79376,3.44736 -0.55919,1.87601 -2.69199,2.75384 -4.48438,2.15811 -2.25555,-0.74966 -3.29671,-3.34519 -2.52247,-5.52139 0.93771,-2.63567 3.999,-3.84092 6.5584,-2.88682 3.01617,1.12436 4.38597,4.65318 3.25119,7.59542 -1.31016,3.39692 -5.30762,4.93158 -8.63244,3.61553 -3.77786,-1.49537 -5.47758,-5.96222 -3.97989,-9.66944 1.68018,-4.15894 6.61695,-6.02387 10.70646,-4.34425 4.54012,1.86469 6.57037,7.27178 4.70861,11.74347"
       transform="matrix(0,1.5372421,-1.4140981,0,404.21671,-221.77585)" />
    <path
       sodipodi:type="spiral"
       style="display:inline;fill:none;fill-rule:evenodd;stroke:url(#linearGradient33937)"
       id="path33743-4"
       sodipodi:cx="226.34917"
       sodipodi:cy="124.10527"
       sodipodi:expansion="1"
       sodipodi:revolution="3"
       sodipodi:radius="9.3266783"
       sodipodi:argument="-18.402037"
       sodipodi:t0="0"
       transform="matrix(0,1.5372421,1.4140981,0,-141.10632,-219.65685)"
       d="m 226.34917,124.10527 c 0.42157,0.20236 -0.0648,0.66811 -0.33633,0.70069 -0.73588,0.0883 -1.15282,-0.74753 -1.06504,-1.37335 0.15701,-1.11944 1.39007,-1.67736 2.41035,-1.42939 1.4973,0.36389 2.2133,2.03984 1.79376,3.44736 -0.55919,1.87601 -2.69199,2.75384 -4.48438,2.15811 -2.25555,-0.74966 -3.29671,-3.34519 -2.52247,-5.52139 0.93771,-2.63567 3.999,-3.84092 6.5584,-2.88682 3.01617,1.12436 4.38597,4.65318 3.25119,7.59542 -1.31016,3.39692 -5.30762,4.93158 -8.63244,3.61553 -3.77786,-1.49537 -5.47758,-5.96222 -3.97989,-9.66944 1.68018,-4.15894 6.61695,-6.02387 10.70646,-4.34425 4.54012,1.86469 6.57037,7.27178 4.70861,11.74347" />
  </g>
  <path
     style="fill:#fc1c1c;fill-opacity:1;stroke-width:0.336329"
     d=""
     id="path11337" />
</svg>
